<svg xmlns="http://www.w3.org/2000/svg" width="100%" height="100%" viewBox="0 0 58 90">
	<path id="tapIcon" fill="#333" d="M17 0C8 0 0 8 0 17c0 3 4 3 4 0C4 9.8203 9.8203 4 17 4s13 5.8203 13 13c0 3 4 3 4 0 0-9-8-17-17-17zm0 12c-4 0-7 3-7 7v27l-3 3c-5 4-6 12-2 17l10 13v6c0 3 3 5 6 5h26c3 0 5-2 5-5v-5c4-5 6-10 6-15V45c0-5-5-7-8-7l-3 1c-1-4-6-6-8-6l-3 1c-3-5-5-5-8-5l-3 1V19c0-4-3-7-7-7zm0 4h1c2 0 3 1 3 3v32l2 2 2-2V36c0-2 1-3 3-3s4 2 4 3v15l2 2 2-2V40c0-2 2-3 3-3 2 0 4 1 4 3v11l2 2 2-2v-6c0-2 2-3 3-3 2 0 4 1 4 3v20c0 4-2 9-5 13l-1 1v6l-1 1H21l-2-1v-8L8 64c-3-3-3-9 1-12l1-1v7c0 3 4 3 4 0V19c0-2 2-3 3-3z"></path>
</svg>