<svg xmlns="http://www.w3.org/2000/svg" width="24" height="24" aria-hidden="true">
  <path d="M2 0a2 2 0 0 0-2 2v7c0 1.1.9 2 2 2 0 0 6.95.02 7 0a2 2 0 0 0 2-2V2a2 2 0 0 0-2-2H2zm13 0a2 2 0 0 0-2 2v7c0 1.1.9 2 2 2 0 0 6.95.02 7 0a2 2 0 0 0 2-2V2a2 2 0 0 0-2-2h-7zM2 1.5h7c.3 0 .5.2.5.5v7c0 .3-.2.5-.5.5H2c-.3 0-.5-.2-.5-.5V2c0-.3.2-.5.5-.5zm13 0h7c.3 0 .5.2.5.5v7c0 .3-.2.5-.5.5h-7c-.3 0-.5-.2-.5-.5V2c0-.3.2-.5.5-.5zM8.5 12.99a2 2 0 0 0-2 2v.37c-.47.07-.92.14-1.32.23-.89.2-1.61.42-2.16.7-.27.15-.5.3-.69.5-.18.2-.33.46-.33.75 0 .3.15.57.33.76.18.2.42.35.69.5.55.28 1.27.5 2.16.7.4.08.85.16 1.32.23V22c0 1.1.9 2 2 2 0 0 6.95.02 7 0a2 2 0 0 0 2-2v-2.26c.48-.07.94-.15 1.32-.23.89-.2 1.61-.42 2.16-.7.27-.15.5-.3.69-.5.18-.2.33-.46.33-.76s-.15-.56-.33-.75a2.6 2.6 0 0 0-.69-.5 9.03 9.03 0 0 0-2.16-.7c-.4-.09-.85-.16-1.32-.23V15a2 2 0 0 0-2-2h-7zm0 1.5h7c.3 0 .5.2.5.5v3.93c-.5.06-1.03.1-1.55.14l.01.97A45 45 0 0 0 16 19.9V22c0 .3-.2.5-.5.5h-7c-.3 0-.5-.2-.5-.5v-2.07c.49.05 1 .09 1.52.12L9.5 21.4l1.68-.96 1.68-.97-1.67-.97-1.68-.97v1.5A36.6 36.6 0 0 1 8 18.92v-3.93c0-.3.2-.5.5-.5zm9 1.88c.4.06.77.13 1.1.2.84.18 1.5.4 1.92.61.21.11.35.22.42.29.07.07.06.09.06.07l-.06.08c-.07.07-.2.18-.42.29-.41.21-1.08.43-1.91.61-.33.07-.7.14-1.11.2v-2.35zm-11 0v2.35c-.4-.06-.77-.13-1.1-.2-.84-.18-1.5-.4-1.92-.61a1.51 1.51 0 0 1-.42-.3c-.07-.06-.06-.08-.06-.07 0 .02-.01 0 .06-.07.07-.07.2-.18.42-.29a8.36 8.36 0 0 1 1.91-.61c.34-.07.72-.14 1.11-.2z"/>
</svg>
