<svg id="svg_tumbleweed" xmlns="http://www.w3.org/2000/svg" width="300" height="300" viewBox="0 0 300 300">
	<g fill="none" stroke="#b9863b" style="stroke:var(--hb_orange-dark);" stroke-width="2">
		<path d="m136 52 37-15M151 19c3 1 29-13 36-10M120 112s22-23 35-31M116 172c21-25 38-47 45-48M120 203l37-34M124 244c3-9 21-30 21-30M121 224c1-5-11-41-11-41M116 160c-4-5-16-43-16-43M120 106s-22-27-20-34M134 62s-10 0-12-19M148 33s-17-3-14-15M207 54c7-4 21-14 22-21M190 117s11 5 22-20M178 160c5-1 14 8 26-10M161 208s12 3 23-10M167 180c-2-7-12-19-11-30M185 133s-21-20-15-33M204 75s-20-28-19-33M225 181s-14-35-13-39M246 113c-5-4-15-9-17-20M251 79c6-12 7-19 6-29M239 159c4 0 17 1 23-16M209 214c3 0 9 5 22-4M187 226s5-28 8-33" />
		<path d="M212 240c1-5-3-20 4-28M265 181s-7-6-5-25M277 114c-7-13-7-11-10-19M284 200c1-11 1-23-2-34M232 260c5-10 9-6 6-23M85 58c22-16 36-21 36-21M84 128c4-9 4-15 11-30M94 200l8-36M83 166c-6-9-10-18-11-30M78 77c-6-14-11-14-3-32M80 218c-5-19-9-9-6-38M53 147c4-11 2-17 10-41M86 230c-11-6-21 5-27-13M50 152s-19 9-20-10M47 80c-1-5-6-15 0-25M51 219c-3-10-7-11-5-30M23 165l10-33M19 107c4-4 10-14 15-23M23 203c-6-21-11-21-10-37M66 255c-4-6-8-6-9-19" />
	</g>
	<g fill="none" stroke="#e4a54b" style="stroke:var(--hb_orange-dark);" stroke-linecap="round" stroke-width="3">
		<path d="M108 281c1-25-43-18-55-37-6-11-9-24-13-36-3-8-9-15-12-23l-4-16c-4-10-11-18-9-30 2-13 14-20 22-30 5-6 7-13 11-21l7-10c3-5 5-12 9-16l12-13c3-5 8-15 14-18" />
		<path d="M115 275c-8-16-13-33-21-49l-3-5c0-7 1-14-2-21-1-6-6-11-5-17l7-21c-4-10-12-20-18-29l-5-5-2-2c-3-10 4-26 8-35 11-25 55-42 55-70M131 276c8-20 31-29 41-47l4-9c2-8 7-16 12-23 5-8 18-26 13-37-3-8-8-14-12-21-6-9-15-14-15-26V99c3-6 10-14 9-21-3-11-9-21-16-30" />
		<path d="M144 275c15-15 72 4 97-19 10-8 14-27 13-40-1-7-6-14-7-22-3-19 21-53 18-70 0-4-3-6-4-9l-10-16-14-11c-7-8-7-22-10-31-2-6-6-11-9-16M128 284c-5-28 6-58 5-86l-3-24-3-9 1-25v-16c0-13 8-23 8-35 1-14-17-30-8-44 3-5 13-15 19-16 4 0 9 5 14 4 5-2 9-8 13-10l10-4" />
		<path d="M126 288s15-143 64-276M130 287s119-150 94-254" />
		<path d="M262 71c51 104-135 219-135 219-2-12-59-176-5-268" />
		<path d="M128 284c-3-3-164-130-73-241" />
	</g>
	<path fill="#e5a749" style="fill:var(--hb_orange-light);" d="m120 297 2-9C63 273-6 190 3 147c23 88 98 127 118 137 0 0-206-126-50-265-137 141 41 247 52 260-14-13-147-143-41-263-92 134 30 239 43 260 0 0-107-209-2-274-88 74 0 251 5 274 0-7-46-190 37-273-68 98-34 239-33 274 0-10 67-152 75-261 17 60-61 250-73 263 20-25 160-119 95-256 90 140-94 260-94 260 12-10 227-77 105-259 142 174-97 261-97 261 5-5 147 10 154-168a143 143 0 0 1-165 170c3 6-1 10-1 10s-9 2-11 0Z" />
</svg>