<svg xmlns="http://www.w3.org/2000/svg" width="24" height="24" aria-hidden="true">
  <path d="M8.5 6.5a2 2 0 0 0-2 2v.36c-.47.07-.92.15-1.32.24-.89.19-1.61.42-2.16.7-.27.14-.5.3-.69.49-.18.2-.33.46-.33.76s.15.56.33.76c.18.2.42.35.69.49.55.28 1.27.5 2.16.7.4.09.85.17 1.32.24v2.25c0 1.1.9 2 2 2 0 0 6.95.03 7 0a2 2 0 0 0 2-2v-2.26c.48-.07.94-.15 1.32-.23.89-.2 1.61-.42 2.16-.7.27-.14.5-.3.69-.5.18-.19.33-.45.33-.75s-.15-.56-.33-.76c-.18-.2-.42-.35-.69-.49a9.03 9.03 0 0 0-2.16-.7c-.4-.1-.85-.17-1.32-.24v-.37a2 2 0 0 0-2-2zm0 1.5h7c.3 0 .5.2.5.5v3.93l-1.55.14.01.97A45 45 0 0 0 16 13.4v2.08c0 .3-.2.5-.5.5h-7c-.3 0-.5-.2-.5-.5v-2.06l1.52.11-.01 1.37 1.68-.96 1.68-.96L11.2 12l-1.68-.97v1.5A36.6 36.6 0 0 1 8 12.42V8.5c0-.3.2-.5.5-.5zm9 1.87c.4.06.77.13 1.1.2.84.19 1.5.4 1.92.62.21.1.35.21.42.28.07.08.06.1.06.08l-.06.07c-.07.08-.2.18-.42.3a12.5 12.5 0 0 1-3.02.8zm-11 0v2.36c-.4-.06-.77-.13-1.1-.2-.84-.19-1.5-.4-1.92-.62-.21-.1-.35-.21-.42-.29L3 11.05l.06-.08c.07-.07.2-.17.42-.28a8.36 8.36 0 0 1 1.91-.61c.34-.08.72-.14 1.11-.2z"/>
</svg>
