<svg height="16" width="16" viewBox="0 0 512 512" xmlns="http://www.w3.org/2000/svg" xmlns:svg="http://www.w3.org/2000/svg">
    <path d="M 85.333,0 A 85.3334,85.3334 0 0 0 0,85.333 85.3334,85.3334 0 0 0 1.849,102.116 85.3334,85.3334 0 0 0 3.84,109.227 85.3334,85.3334 0 0 0 6.827,117.76 85.3334,85.3334 0 0 0 10.667,126.009 85.3334,85.3334 0 0 0 11.662,128 H 11.236 A 85.3334,85.3334 0 0 1 22.898,170.667 85.3334,85.3334 0 0 1 11.236,213.333 H 11.52 A 85.3334,85.3334 0 0 0 0,256 85.3334,85.3334 0 0 0 11.662,298.667 H 11.236 A 85.3334,85.3334 0 0 1 22.898,341.334 85.3334,85.3334 0 0 1 11.236,384 H 11.52 A 85.3334,85.3334 0 0 0 10.098,387.27 85.3334,85.3334 0 0 0 7.253,392.96 85.3334,85.3334 0 0 0 3.413,404.054 85.3334,85.3334 0 0 0 1.991,409.459 85.3334,85.3334 0 0 0 0,426.666 85.3334,85.3334 0 0 0 85.333,512 85.3334,85.3334 0 0 0 102.116,510.15 85.3334,85.3334 0 0 0 109.227,508.16 85.3334,85.3334 0 0 0 117.76,505.174 85.3334,85.3334 0 0 0 126.009,501.334 85.3334,85.3334 0 0 0 128,500.339 V 500.765 A 85.3334,85.3334 0 0 1 170.667,489.101 85.3334,85.3334 0 0 1 213.333,500.765 V 500.48 A 85.3334,85.3334 0 0 0 256,512 85.3334,85.3334 0 0 0 298.667,500.339 V 500.765 A 85.3334,85.3334 0 0 1 341.334,489.101 85.3334,85.3334 0 0 1 383.998,500.765 V 500.48 A 85.3334,85.3334 0 0 0 387.268,501.901 85.3334,85.3334 0 0 0 392.958,504.746 85.3334,85.3334 0 0 0 404.058,508.586 85.3334,85.3334 0 0 0 409.458,510.01 85.3334,85.3334 0 0 0 426.668,512 85.3334,85.3334 0 0 0 511.998,426.666 85.3334,85.3334 0 0 0 510.578,411.875 85.3334,85.3334 0 0 0 500.618,384 85.3334,85.3334 0 0 1 489.098,341.334 85.3334,85.3334 0 0 1 500.768,298.667 H 500.478 A 85.3334,85.3334 0 0 0 511.998,256 85.3334,85.3334 0 0 0 500.338,213.333 H 500.768 A 85.3334,85.3334 0 0 1 489.098,170.667 85.3334,85.3334 0 0 1 500.768,128 H 500.478 A 85.3334,85.3334 0 0 0 501.898,124.729 85.3334,85.3334 0 0 0 504.748,119.04 85.3334,85.3334 0 0 0 508.588,107.947 85.3334,85.3334 0 0 0 510.008,102.542 85.3334,85.3334 0 0 0 511.998,85.333 85.3334,85.3334 0 0 0 426.668,0 85.3334,85.3334 0 0 0 409.888,1.8489 85.3334,85.3334 0 0 0 402.778,3.84 85.3334,85.3334 0 0 0 394.238,6.8267 85.3334,85.3334 0 0 0 385.988,10.6667 85.3334,85.3334 0 0 0 383.998,11.6622 V 11.2356 A 85.3334,85.3334 0 0 1 341.334,22.8978 85.3334,85.3334 0 0 1 298.667,11.2356 V 11.52 A 85.3334,85.3334 0 0 0 256,0 85.3334,85.3334 0 0 0 213.333,11.6622 V 11.2356 A 85.3334,85.3334 0 0 1 170.667,22.8978 85.3334,85.3334 0 0 1 128,11.3778 85.3334,85.3334 0 0 0 114.773,5.2622 85.3334,85.3334 0 0 0 114.204,5.12 85.3334,85.3334 0 0 0 100.693,1.4222 85.3334,85.3334 0 0 0 99.84,1.4222 85.3334,85.3334 0 0 0 85.333,0 Z M 170.667,170.667 H 341.334 V 341.334 H 170.667 Z" />
</svg>
