<svg class="vectorShapeSquiggle" xmlns="http://www.w3.org/2000/svg" xml:space="preserve" viewBox="0 0 1920 160">
  <path class="vectorShapeSquiggle_bottom" fill="var(--bottomColour)" d="M479 44c-13 1-34 51-80 50-34-1-68-41-80-39-11 1-37 45-73 44-39-1-66-49-81-43-8 3-6 5-23 25-17 21-34 37-45 41-22 6-42-7-57-21C18 83 6 75 0 74v86h1920V80c-11 1-32 21-91 20-54-1-57-20-75-19-20 2-53 39-98 36-52-4-76-52-92-48-15 3-61 50-107 47-53-4-83-62-102-63-17-1-47 44-99 34-33-6-55-26-65-25-11 1-46 45-90 44-20-1-28-5-72-36-23-17-55 42-103 38-19-2-34-11-46-20-11-7-19-14-26-16-13-1-31 20-67 18-37-3-54-26-64-26-9 0-24 19-53 16-35-4-41-24-51-21-5 1-22 39-59 35-42-5-69-51-81-50Z" />
  <path class="vectorShapeSquiggle_top" fill="var(--topColour)" d="M0 0v74c6 1 18 9 40 27 15 14 35 27 57 21 11-4 28-20 45-41 17-20 15-22 23-25 15-6 42 42 81 43 36 1 62-43 73-44 12-2 46 38 80 39 46 1 67-49 80-50 12-1 39 45 81 50 37 4 54-34 59-35 10-3 16 17 51 21 29 3 44-16 53-16 10 0 27 23 64 26 36 2 54-19 67-18 7 2 15 9 26 16 12 9 27 18 46 20 48 4 80-55 103-38 44 31 52 35 72 36 44 1 79-43 90-44 10-1 32 19 65 25 52 10 82-35 99-34 19 1 49 59 102 63 46 3 92-44 107-47 16-4 40 44 92 48 45 3 78-34 98-36 18-1 21 18 75 19 59 1 80-19 91-20V0Z" />
  <path class="vectorShapeSquiggle_line" stroke-width="var(--lineWidth)" stroke="var(--lineColor)" style="visibility:var(--lineVisible);" fill="none" stroke-linecap="round" d="M1920 80c-11 1-32 21-91 20-54-1-57-20-75-19-20 2-53 39-98 36-52-4-76-52-92-48-15 3-61 50-107 47-53-4-83-62-102-63-17-1-47 44-99 34-33-6-55-26-65-25-11 1-46 45-90 44-20-1-28-5-72-36-23-17-55 42-103 38-19-2-34-11-46-20-11-7-19-14-26-16-13-1-31 20-67 18-37-3-54-26-64-26-9 0-24 19-53 16-35-4-41-24-51-21-5 1-22 39-59 35-42-5-69-51-81-50-13 1-34 51-80 50-34-1-68-41-80-39-11 1-37 45-73 44-39-1-66-49-81-43-8 3-6 5-23 25-17 21-34 37-45 41-22 6-42-7-57-21C18 83 6 75 0 74" />
</svg>
