<svg xmlns="http://www.w3.org/2000/svg" width="16" height="16" viewBox="0 0 16 16" context="list-view" aria-hidden="true" focusable="false"><path d="M9 0 5.62 9.02h1.44L10.43 0H9zM5.1 1.54 0 4.05v.87l5.1 2.53V5.99l-3.21-1.5 3.2-1.48V1.54zm5.81 0V3l3.2 1.48-3.2 1.5v1.46L16 4.92v-.87l-5.09-2.51zm-8.51 9.1c-.54 0-.97.06-1.28.2-.3.13-.54.32-.7.56-.15.23-.22.48-.22.75 0 .4.15.74.45 1 .3.26.8.48 1.5.63.43.1.7.2.82.3.12.11.18.23.18.37 0 .14-.06.26-.19.37a.8.8 0 0 1-.52.16c-.31 0-.55-.1-.71-.32-.1-.13-.17-.31-.2-.56L0 14.2c.04.52.24.95.58 1.29.34.34.95.51 1.83.51.5 0 .92-.07 1.25-.22.33-.14.59-.36.77-.64.19-.28.28-.58.28-.92 0-.28-.07-.54-.2-.77a1.56 1.56 0 0 0-.67-.57 6.6 6.6 0 0 0-1.5-.46 1.32 1.32 0 0 1-.55-.2c-.07-.06-.11-.13-.11-.21 0-.12.05-.21.14-.3.1-.07.24-.11.42-.11.23 0 .4.05.53.16.13.1.22.27.26.5l1.51-.08c-.07-.54-.27-.93-.62-1.18a2.6 2.6 0 0 0-1.52-.37zm11.11 0c-.6 0-1.07.08-1.42.24-.45.22-.8.54-1.03.96-.23.42-.35.91-.35 1.48 0 .53.1 1.01.32 1.43.22.41.52.73.9.94a4.3 4.3 0 0 0 2.8.14c.38-.12.8-.34 1.27-.67v-2.2h-2.48v1.07h1.07v.49c-.2.12-.4.21-.55.27-.17.05-.34.07-.52.07-.38 0-.67-.12-.89-.36-.2-.24-.31-.64-.31-1.2 0-.53.1-.92.31-1.16.21-.24.5-.37.84-.37a1 1 0 0 1 .59.16c.15.1.26.25.32.45l1.55-.28c-.1-.33-.24-.61-.43-.83a1.64 1.64 0 0 0-.7-.48c-.29-.1-.72-.16-1.29-.16zm-8.5.08 1.96 5.2H8.7l1.92-5.2H9l-1.15 3.74-1.17-3.74H5z" /></svg>
